# xmcd CD database file
#
# Track frame offsets:
#	150
#	6055
#	19985
#	35670
#	38027
#	54622
#	73780
#	96125
#	118615
#	135607
#	142230
#	162610
#	177260
#	182532
#	203067
#	223800
#	229190
#	247795
#	266482
#	289342
#	293715
#	314732
#
# Disc length: 4449 seconds
#
# Revision: 8
# Processed by: cddbd v1.5.2PL0 Copyright (c) Steve Scherf et al.
# Submitted via: CD2WAV32(JP) R3.22
#
DISCID=54115f16
DTITLE=Ashanti - Chapter Ⅱ
DYEAR=2003
DGENRE=R&B
TTITLE0=Intro
TTITLE1=Shanty's World
TTITLE2=Rock Wit U(Awww Baby)
TTITLE3=What Are They Gonna Say Now
TTITLE4=Breakup 2 Makeup
TTITLE5=I Found Lovin'
TTITLE6=Rain On Me
TTITLE7=Then Ya Gone
TTITLE8=Living My Life
TTITLE9=Black Child
TTITLE10=I Feel Good
TTITLE11=Carry On
TTITLE12=The Sugar Shack
TTITLE13=The Story Of 2
TTITLE14=Ohhh Ahhh
TTITLE15=Shany Shia
TTITLE16=Sweet Baby
TTITLE17=U Say, I Say
TTITLE18=I Don't Mind
TTITLE19=Outro
TTITLE20=I Know
TTITLE21=I'm Not Scared
EXTD=
EXTT0=
EXTT1=
EXTT2=
EXTT3=
EXTT4=
EXTT5=
EXTT6=
EXTT7=
EXTT8=
EXTT9=
EXTT10=
EXTT11=
EXTT12=
EXTT13=
EXTT14=
EXTT15=
EXTT16=
EXTT17=
EXTT18=
EXTT19=
EXTT20=
EXTT21=
PLAYORDER=
